<svg width="24" height="24" viewBox="0 0 24 24" fill="none" xmlns="http://www.w3.org/2000/svg">
<g clip-path="url(#clip0_5_2)">
<path d="M4.8 5.5L1.5 9.5L4.8 13.5H7L11.5 9.5L7 5.5H4.8Z" fill="white"/>
<path d="M7.5 19.5L11.5 22L15.5 19.5V13.1L11.5 9.5L7.5 13.1V19.5Z" fill="white"/>
<path d="M18.3 5.5H16L11.5 9.5L16 13.5H18.3L21.5 9.5L18.3 5.5Z" fill="white"/>
<path d="M15.5 12.5H7.5V15.5H15.5V12.5Z" fill="#738678"/>
<path d="M15.5 19.5L11.5 22L7.5 19.5V18.5H15.5V19.5Z" fill="#738678"/>
<path d="M14.7 6.69999L11.5 3.79999L8.29999 6.69999L11.5 9.49999L14.7 6.69999Z" fill="#738678"/>
<path d="M18.3 5.5L16 13.5H18.3L21.5 9.5L18.3 5.5Z" fill="#738678"/>
<path d="M7 5.5L4.5 13.5H7L11.5 9.5L7 5.5Z" fill="#738678"/>
<path d="M7 5.5L11.5 9.5L7 13.5H4.8L1.5 9.5L4.8 5.5H7Z" stroke="#4D5D53" stroke-miterlimit="10" stroke-linecap="round" stroke-linejoin="round"/>
<path d="M8.29999 6.7L14 1.5H15" stroke="#4D5D53" stroke-miterlimit="10" stroke-linecap="round" stroke-linejoin="round"/>
<path d="M14.7 6.7L9 1.5H8" stroke="#4D5D53" stroke-miterlimit="10" stroke-linecap="round" stroke-linejoin="round"/>
<path d="M14.7 6.69999L11.5 3.79999L8.29999 6.69999L11.5 9.49999L14.7 6.69999Z" stroke="#4D5D53" stroke-miterlimit="10" stroke-linecap="round" stroke-linejoin="round"/>
<path d="M7.5 13.1V19.5L11.5 22L15.5 19.5V13.1" stroke="#4D5D53" stroke-miterlimit="10" stroke-linecap="round" stroke-linejoin="round"/>
<path d="M11.5 23.5V22" stroke="#4D5D53" stroke-miterlimit="10" stroke-linecap="round" stroke-linejoin="round"/>
<path d="M7.5 18.5H15.5" stroke="#4D5D53" stroke-miterlimit="10" stroke-linecap="round" stroke-linejoin="round"/>
<path d="M7.5 15.5H15.5" stroke="#4D5D53" stroke-miterlimit="10" stroke-linecap="round" stroke-linejoin="round"/>
<path d="M8.10001 12.5H14.9" stroke="#4D5D53" stroke-miterlimit="10" stroke-linecap="round" stroke-linejoin="round"/>
<path d="M16 5.5L11.5 9.5L16 13.5H18.3L21.5 9.5L18.3 5.5H16Z" stroke="#4D5D53" stroke-miterlimit="10" stroke-linecap="round" stroke-linejoin="round"/>
</g>
<defs>
<clipPath id="clip0_5_2">
<rect width="24" height="24" fill="white"/>
</clipPath>
</defs>
</svg>
