<svg width="260" height="49" viewBox="0 0 260 49" fill="none" xmlns="http://www.w3.org/2000/svg">
<path d="M25.12 10.2C27.6 10.2 29.7467 9.69333 31.56 8.68L32.04 9.44C30.36 10.3467 28.56 10.8667 26.64 11C25.1733 12.76 23.92 15.0933 22.88 18C21.84 20.9067 21.32 23.7867 21.32 26.64C21.32 29.4933 21.84 31.4933 22.88 32.64C23.92 33.7867 25.32 34.36 27.08 34.36C29.5867 34.36 31.9067 33.0533 34.04 30.44C35.6133 28.4133 36.88 26.12 37.84 23.56C38.8267 21 39.44 18.6667 39.68 16.56C39.92 14.4267 40.04 12.3467 40.04 10.32C40.04 8.26667 39.8267 6.37333 39.4 4.64L40.24 4.44C40.6933 6.17333 40.92 8.09333 40.92 10.2C40.92 12.3067 40.7867 14.4533 40.52 16.64C40.28 18.8267 39.6533 21.24 38.64 23.88C37.6533 26.52 36.3467 28.88 34.72 30.96C31.4133 35.2267 27.76 37.36 23.76 37.36C21.4667 37.36 19.7733 36.6 18.68 35.08C17.5867 33.5867 17.04 31.7867 17.04 29.68C17.04 27.5733 17.3467 25.44 17.96 23.28C18.6 21.12 19.4133 19.2267 20.4 17.6C22.08 14.7733 23.6933 12.5867 25.24 11.04C24.4933 11.04 23.32 10.96 21.72 10.8L17.04 10.52C13.3067 10.52 10.3867 11.4533 8.28 13.32C6.17333 15.16 5.12 17.7333 5.12 21.04C5.12 22.2933 5.33333 23.4267 5.76 24.44C6.18667 25.4267 6.66667 26.1867 7.2 26.72C7.76 27.2533 8.38667 27.7067 9.08 28.08C9.93333 28.56 10.76 28.8933 11.56 29.08L11.36 29.92C10.8267 29.92 10.08 29.6533 9.12 29.12C8.18667 28.5867 7.38667 28.0267 6.72 27.44C6.08 26.8267 5.50667 25.96 5 24.84C4.52 23.72 4.28 22.4533 4.28 21.04C4.28 17.5467 5.42667 14.7733 7.72 12.72C10.0133 10.6667 13.12 9.64 17.04 9.64C17.9467 9.64 19.5467 9.73333 21.84 9.92C22.9333 10.1067 24.0267 10.2 25.12 10.2ZM49.8772 32.92C49.0772 33.88 48.0772 34.36 46.8772 34.36C45.6772 34.36 44.7305 34.0533 44.0372 33.44C43.3705 32.8267 43.0372 32.0267 43.0372 31.04C43.0372 30.6933 43.2505 29.24 43.6772 26.68L44.9972 19.52H43.3172L43.3972 18.8H45.1172C47.0905 18.8 48.5439 18.72 49.4772 18.56L50.0372 18.44L47.2772 33.56C48.0772 33.48 48.7439 33.1067 49.2772 32.44L49.8772 32.92ZM46.3572 14.6C45.7972 14.04 45.5172 13.36 45.5172 12.56C45.5172 11.76 45.7972 11.08 46.3572 10.52C46.9172 9.93333 47.5972 9.64 48.3972 9.64C49.1972 9.64 49.8772 9.93333 50.4372 10.52C51.0239 11.08 51.3172 11.76 51.3172 12.56C51.3172 13.36 51.0239 14.04 50.4372 14.6C49.8772 15.16 49.1972 15.44 48.3972 15.44C47.5972 15.44 46.9172 15.16 46.3572 14.6ZM66.0447 34.36C63.698 34.36 62.418 33.36 62.2047 31.36C61.0314 33.36 59.538 34.36 57.7247 34.36C55.9114 34.36 54.5247 33.8533 53.5647 32.84C52.6047 31.8 52.1247 30.3867 52.1247 28.6C52.1247 25.4533 52.8714 22.9733 54.3647 21.16C55.858 19.3467 57.7914 18.44 60.1647 18.44C61.5247 18.44 62.578 18.8533 63.3247 19.68C63.6447 20.1067 63.8447 20.4267 63.9247 20.64L66.0847 8.88C65.2847 8.96 64.618 9.33333 64.0847 10L63.4847 9.52C64.2847 8.56 65.2847 8.08 66.4847 8.08C67.7114 8.08 68.658 8.38667 69.3247 9C69.9914 9.61333 70.3247 10.48 70.3247 11.6C70.3247 11.8133 70.298 12.16 70.2447 12.64C68.938 19.9733 67.6714 26.9467 66.4447 33.56C67.2447 33.48 67.9114 33.1067 68.4447 32.44L69.0447 32.92C68.2447 33.88 67.2447 34.36 66.0447 34.36ZM56.6447 30.24C56.6447 31.4667 56.7647 32.3067 57.0047 32.76C57.2714 33.2133 57.6714 33.44 58.2047 33.44C58.7647 33.44 59.298 33.2533 59.8047 32.88C60.3114 32.5067 60.738 32.0267 61.0847 31.44C61.7247 30.4533 62.178 29.6133 62.4447 28.92L63.6047 22.6C63.5514 21.7467 63.2714 20.9733 62.7647 20.28C62.258 19.56 61.3914 19.2 60.1647 19.2C59.3114 19.2 58.5114 20.4533 57.7647 22.96C57.018 25.4667 56.6447 27.8933 56.6447 30.24ZM85.3863 34.36C83.0396 34.36 81.7596 33.3333 81.5463 31.28C80.3729 33.3333 78.8929 34.36 77.1063 34.36C75.3196 34.36 73.8929 33.8267 72.8263 32.76C71.7863 31.6667 71.2663 30.1467 71.2663 28.2C71.2663 25.16 72.0129 22.7733 73.5063 21.04C74.9996 19.3067 76.9329 18.44 79.3063 18.44C81.2529 18.44 82.5463 19.36 83.1863 21.2C83.3196 20.4 83.4663 19.6 83.6263 18.8C85.5996 18.8 87.0663 18.72 88.0263 18.56L88.5463 18.44L85.7863 33.56C86.5863 33.48 87.2529 33.1067 87.7863 32.44L88.3863 32.92C87.5863 33.88 86.5863 34.36 85.3863 34.36ZM75.7863 30.24C75.7863 31.44 75.9329 32.28 76.2263 32.76C76.5463 33.2133 77.0263 33.44 77.6663 33.44C78.3063 33.44 78.9596 33.0933 79.6263 32.4C80.5063 31.4933 81.2129 30.3467 81.7463 28.96C81.8263 28.6133 81.9729 27.7867 82.1863 26.48C82.4263 25.1467 82.6263 24.0533 82.7863 23.2C82.7063 22.1867 82.4263 21.3067 81.9463 20.56C81.4663 19.8133 80.8663 19.44 80.1463 19.44C78.8396 19.44 77.7863 20.6133 76.9863 22.96C76.1863 25.28 75.7863 27.7067 75.7863 30.24ZM109.157 41.76C111.957 41.76 114.13 41.1867 115.677 40.04C117.25 38.8933 118.037 37.3733 118.037 35.48C118.037 34.12 117.69 32.92 116.997 31.88C116.33 30.84 115.49 29.9867 114.477 29.32C113.464 28.6267 112.424 27.9467 111.357 27.28C110.317 26.6133 109.344 25.7733 108.437 24.76C107.53 23.7467 106.93 22.6 106.637 21.32C104.21 20.6 102.61 19.0933 101.837 16.8C101.544 15.92 101.397 15 101.397 14.04C101.397 13.08 101.544 12.08 101.837 11.04C102.45 8.98667 103.45 7.44 104.837 6.4L105.277 7.04C104.024 7.94667 103.117 9.36 102.557 11.28C102.29 12.24 102.157 13.16 102.157 14.04C102.157 14.92 102.29 15.76 102.557 16.56C103.197 18.5067 104.517 19.8133 106.517 20.48C106.464 20.1867 106.437 19.7333 106.437 19.12C106.437 15.6267 107.704 12.8 110.237 10.64C112.77 8.48 115.864 7.4 119.517 7.4C121.917 7.4 123.837 8.05333 125.277 9.36C126.504 10.5067 127.117 11.92 127.117 13.6C127.117 15.2533 126.557 16.6933 125.437 17.92C124.317 19.12 122.81 19.72 120.917 19.72C119.877 19.72 119.024 19.52 118.357 19.12C116.997 20.16 115.384 20.9067 113.517 21.36C114.05 21.8667 115.29 22.8 117.237 24.16C119.21 25.52 120.677 26.8267 121.637 28.08C122.624 29.3067 123.117 30.7467 123.117 32.4C123.117 35.44 121.93 37.9067 119.557 39.8C117.21 41.6933 114.224 42.64 110.597 42.64C106.997 42.64 104.277 41.84 102.437 40.24C100.837 38.88 100.037 37.2133 100.037 35.24C100.037 33.2933 100.664 31.6267 101.917 30.24C103.197 28.8267 104.784 28.12 106.677 28.12C108.57 28.12 109.97 28.5467 110.877 29.4C111.784 30.2267 112.237 31.24 112.237 32.44C112.237 33.64 111.864 34.7067 111.117 35.64C110.397 36.5733 109.45 37.04 108.277 37.04C107.104 37.04 106.17 36.6667 105.477 35.92C104.837 35.28 104.477 34.48 104.397 33.52C104.37 33.2533 104.37 33.0933 104.397 33.04L105.157 33.08C105.13 34.0133 105.424 34.7867 106.037 35.4C106.544 35.96 107.277 36.24 108.237 36.24C109.224 36.24 110.01 35.8533 110.597 35.08C111.184 34.3333 111.477 33.4667 111.477 32.48C111.477 31.4667 111.13 30.6533 110.437 30.04C109.664 29.2667 108.424 28.88 106.717 28.88C105.01 28.88 103.597 29.5067 102.477 30.76C101.357 31.9867 100.797 33.4667 100.797 35.2C100.797 36.96 101.517 38.4533 102.957 39.68C103.81 40.4267 104.677 40.96 105.557 41.28C106.464 41.6 107.664 41.76 109.157 41.76ZM115.957 14.24C115.957 13.0667 116.25 12.0933 116.837 11.32C117.45 10.5467 118.277 10.16 119.317 10.16C121.104 10.16 121.997 11.1467 121.997 13.12C121.997 15.0667 121.024 16.9067 119.077 18.64C119.664 18.9067 120.277 19.04 120.917 19.04C122.57 19.04 123.89 18.5067 124.877 17.44C125.864 16.3467 126.357 15.08 126.357 13.64C126.357 12.1733 125.824 10.9333 124.757 9.92C123.45 8.74667 121.73 8.16 119.597 8.16C117.464 8.16 115.65 8.68 114.157 9.72C111.837 11.3733 110.677 13.5067 110.677 16.12C110.677 18.28 111.397 19.8533 112.837 20.84C114.624 20.44 116.277 19.72 117.797 18.68C116.57 17.5867 115.957 16.1067 115.957 14.24ZM119.277 10.88C118.477 10.88 117.85 11.1867 117.397 11.8C116.97 12.4133 116.757 13.2267 116.757 14.24C116.757 15.9733 117.304 17.2933 118.397 18.2C119.197 17.64 119.864 16.88 120.397 15.92C120.93 14.96 121.197 14.0133 121.197 13.08C121.197 11.6133 120.557 10.88 119.277 10.88ZM136.195 18.44C139.582 18.44 141.275 19.7867 141.275 22.48C141.275 24.16 140.475 25.44 138.875 26.32C137.302 27.1733 135.049 27.6133 132.115 27.64C132.062 28.6 132.035 29.36 132.035 29.92C132.035 31.12 132.302 32.0133 132.835 32.6C133.395 33.16 134.089 33.44 134.915 33.44C135.742 33.44 136.489 33.28 137.155 32.96C137.849 32.64 138.395 32.2667 138.795 31.84C139.195 31.3867 139.542 30.92 139.835 30.44C140.369 29.56 140.635 29 140.635 28.76L141.355 29.08C141.275 29.5067 141.035 30.08 140.635 30.8C140.235 31.4933 139.795 32.0667 139.315 32.52C138.835 32.9733 138.129 33.4 137.195 33.8C136.262 34.1733 135.222 34.36 134.075 34.36C131.915 34.36 130.275 33.8533 129.155 32.84C128.062 31.8 127.515 30.3867 127.515 28.6C127.515 25.4267 128.302 22.9467 129.875 21.16C131.449 19.3467 133.555 18.44 136.195 18.44ZM140.275 22.48C140.275 21.6 140.009 20.88 139.475 20.32C138.969 19.7333 138.195 19.44 137.155 19.44C136.142 19.44 135.142 20.0533 134.155 21.28C133.195 22.5067 132.555 24.32 132.235 26.72C137.595 26.6933 140.275 25.28 140.275 22.48ZM150.774 32.56C150.427 33.0133 149.947 33.4267 149.334 33.8C148.747 34.1733 147.974 34.36 147.014 34.36C146.054 34.36 145.24 34.0533 144.574 33.44C143.907 32.8267 143.574 31.96 143.574 30.84C143.574 30.6267 143.6 30.28 143.654 29.8L146.254 15.4C146.734 12.76 147.387 10.88 148.214 9.76C149.067 8.64 150.187 8.08 151.574 8.08C152.534 8.08 153.32 8.44 153.934 9.16C154.574 9.88 154.894 10.9733 154.894 12.44C154.894 13.9067 154.32 16 153.174 18.72C152.054 21.44 151.494 23.4267 151.494 24.68H150.774C150.774 23.2667 151.334 21.2533 152.454 18.64C153.574 16 154.134 13.8933 154.134 12.32C154.134 11.36 153.907 10.5333 153.454 9.84C153.027 9.14666 152.494 8.8 151.854 8.8C151.827 9.49333 151.36 12.6133 150.454 18.16C149.574 23.68 148.694 28.8133 147.814 33.56C148.56 33.56 149.254 33.1733 149.894 32.4C150.534 31.6267 150.987 30.8533 151.254 30.08L151.694 28.88L152.414 29.2C152.334 29.5733 152.12 30.12 151.774 30.84C151.454 31.5333 151.12 32.1067 150.774 32.56ZM165.067 23.4C164.507 22.84 164.227 22.16 164.227 21.36C164.227 20.56 164.507 19.88 165.067 19.32C165.627 18.7333 166.253 18.44 166.947 18.44C167.667 18.44 168.267 18.6267 168.747 19C169.253 19.3467 169.613 19.8 169.827 20.36C169.853 20.3867 169.867 20.4133 169.867 20.44V20.48C170.187 21.1733 170.347 22.1867 170.347 23.52C170.347 24.8267 170.187 26.0267 169.867 27.12C169.573 28.2133 169.107 29.3333 168.467 30.48C167.853 31.6 166.947 32.5333 165.747 33.28C164.547 34 163.133 34.36 161.507 34.36C159.88 34.36 158.52 33.8267 157.427 32.76C156.36 31.6933 155.827 30.4667 155.827 29.08C155.827 27.6933 156.067 25.9867 156.547 23.96C157.053 21.9067 157.333 20.3333 157.387 19.24C156.96 19.2667 156.547 19.4267 156.147 19.72C155.747 19.9867 155.453 20.2533 155.267 20.52L154.987 20.92L154.387 20.44C154.467 20.28 154.587 20.0933 154.747 19.88C154.907 19.6667 155.307 19.3733 155.947 19C156.613 18.6267 157.44 18.44 158.427 18.44C159.413 18.44 160.2 18.76 160.787 19.4C161.4 20.04 161.707 20.8533 161.707 21.84C161.707 22.8267 161.44 24.36 160.907 26.44C160.373 28.4933 160.107 29.9467 160.107 30.8C160.107 31.6267 160.293 32.28 160.667 32.76C161.067 33.24 161.627 33.48 162.347 33.48C164.133 33.48 165.76 32.5067 167.227 30.56C168.693 28.6133 169.427 26.44 169.427 24.04C169.427 23.8533 169.4 23.5733 169.347 23.2C168.787 23.8933 168.067 24.24 167.187 24.24C166.333 24.24 165.627 23.96 165.067 23.4ZM186.363 34.36C184.016 34.36 182.736 33.3333 182.523 31.28C181.349 33.3333 179.869 34.36 178.083 34.36C176.296 34.36 174.869 33.8267 173.803 32.76C172.763 31.6667 172.243 30.1467 172.243 28.2C172.243 25.16 172.989 22.7733 174.483 21.04C175.976 19.3067 177.909 18.44 180.283 18.44C182.229 18.44 183.523 19.36 184.163 21.2C184.296 20.4 184.443 19.6 184.603 18.8C186.576 18.8 188.043 18.72 189.003 18.56L189.523 18.44L186.763 33.56C187.563 33.48 188.229 33.1067 188.763 32.44L189.363 32.92C188.563 33.88 187.563 34.36 186.363 34.36ZM176.763 30.24C176.763 31.44 176.909 32.28 177.203 32.76C177.523 33.2133 178.003 33.44 178.643 33.44C179.283 33.44 179.936 33.0933 180.603 32.4C181.483 31.4933 182.189 30.3467 182.723 28.96C182.803 28.6133 182.949 27.7867 183.163 26.48C183.403 25.1467 183.603 24.0533 183.763 23.2C183.683 22.1867 183.403 21.3067 182.923 20.56C182.443 19.8133 181.843 19.44 181.123 19.44C179.816 19.44 178.763 20.6133 177.963 22.96C177.163 25.28 176.763 27.7067 176.763 30.24ZM204.778 38.36C205.738 38.36 206.564 37.9867 207.258 37.24L207.818 37.72C207.178 38.6267 206.164 39.08 204.778 39.08C204.191 39.08 203.591 39.0133 202.978 38.88C201.164 40.5333 198.844 41.36 196.018 41.36C194.338 41.36 193.031 41.0667 192.098 40.48C191.191 39.92 190.738 39.1733 190.738 38.24C190.738 37.3333 191.018 36.6 191.578 36.04C192.164 35.5067 193.191 35.24 194.658 35.24C196.124 35.24 198.058 35.84 200.458 37.04L201.698 30.4C200.498 32.6133 198.951 33.72 197.058 33.72C193.431 33.72 191.618 31.9333 191.618 28.36C191.618 25.3733 192.364 22.9733 193.858 21.16C195.378 19.3467 197.311 18.44 199.658 18.44C201.018 18.44 202.071 18.8533 202.818 19.68C203.031 19.92 203.244 20.28 203.458 20.76L203.818 18.8C205.791 18.8 207.231 18.72 208.138 18.56L208.658 18.44L206.018 33.2C205.618 35.28 204.818 36.96 203.618 38.24C203.964 38.32 204.351 38.36 204.778 38.36ZM196.138 29.6C196.138 30.8267 196.258 31.6533 196.498 32.08C196.738 32.48 197.191 32.68 197.858 32.68C198.524 32.68 199.204 32.32 199.898 31.6C200.591 30.88 201.084 30.2133 201.378 29.6C201.698 28.96 201.964 28.3467 202.178 27.76L203.018 23.16V22.88C203.018 20.4267 201.898 19.2 199.658 19.2C198.804 19.2 198.004 20.36 197.258 22.68C196.511 25 196.138 27.3067 196.138 29.6ZM195.858 40.56C197.991 40.56 199.431 39.64 200.178 37.8L199.618 37.52C199.298 37.36 199.098 37.2533 199.018 37.2C198.964 37.1733 198.791 37.0933 198.498 36.96C198.204 36.8267 197.991 36.7333 197.858 36.68C197.724 36.6533 197.511 36.5867 197.218 36.48C196.951 36.3733 196.724 36.2933 196.538 36.24C196.351 36.2133 196.138 36.1733 195.898 36.12C195.498 36.04 194.911 36 194.138 36C193.364 36 192.738 36.1867 192.258 36.56C191.804 36.9333 191.578 37.48 191.578 38.2C191.578 38.92 191.964 39.4933 192.738 39.92C193.511 40.3467 194.551 40.56 195.858 40.56ZM218.852 18.44C222.238 18.44 223.932 19.7867 223.932 22.48C223.932 24.16 223.132 25.44 221.532 26.32C219.958 27.1733 217.705 27.6133 214.772 27.64C214.718 28.6 214.692 29.36 214.692 29.92C214.692 31.12 214.958 32.0133 215.492 32.6C216.052 33.16 216.745 33.44 217.572 33.44C218.398 33.44 219.145 33.28 219.812 32.96C220.505 32.64 221.052 32.2667 221.452 31.84C221.852 31.3867 222.198 30.92 222.492 30.44C223.025 29.56 223.292 29 223.292 28.76L224.012 29.08C223.932 29.5067 223.692 30.08 223.292 30.8C222.892 31.4933 222.452 32.0667 221.972 32.52C221.492 32.9733 220.785 33.4 219.852 33.8C218.918 34.1733 217.878 34.36 216.732 34.36C214.572 34.36 212.932 33.8533 211.812 32.84C210.718 31.8 210.172 30.3867 210.172 28.6C210.172 25.4267 210.958 22.9467 212.532 21.16C214.105 19.3467 216.212 18.44 218.852 18.44ZM222.932 22.48C222.932 21.6 222.665 20.88 222.132 20.32C221.625 19.7333 220.852 19.44 219.812 19.44C218.798 19.44 217.798 20.0533 216.812 21.28C215.852 22.5067 215.212 24.32 214.892 26.72C220.252 26.6933 222.932 25.28 222.932 22.48ZM241.35 33.56C241.99 33.56 242.657 33.1867 243.35 32.44L243.95 32.92C243.763 33.2933 243.35 33.6267 242.71 33.92C242.07 34.2133 241.363 34.36 240.59 34.36C238.163 34.36 236.95 33.2667 236.95 31.08C236.95 30.1467 237.19 28.48 237.67 26.08C238.15 23.68 238.39 22.1067 238.39 21.36C238.39 20.2133 237.843 19.64 236.75 19.64C235.097 19.64 233.71 21.76 232.59 26L231.15 34H226.35L228.99 19.24C228.19 19.32 227.523 19.6933 226.99 20.36L226.39 19.88C227.19 18.92 228.19 18.44 229.39 18.44C230.617 18.44 231.563 18.7467 232.23 19.36C232.897 19.9733 233.23 20.84 233.23 21.96V22.08C234.27 19.6533 235.843 18.44 237.95 18.44C239.443 18.44 240.617 18.8533 241.47 19.68C242.35 20.48 242.83 21.6133 242.91 23.08C243.417 21.6133 244.057 20.48 244.83 19.68C245.603 18.8533 246.723 18.44 248.19 18.44C249.657 18.44 250.83 18.8933 251.71 19.8C252.59 20.68 253.03 21.9067 253.03 23.48C253.03 24.3067 252.777 25.9067 252.27 28.28C251.763 30.6267 251.483 32.3867 251.43 33.56C252.07 33.56 252.737 33.1867 253.43 32.44L254.03 32.92C253.843 33.2933 253.43 33.6267 252.79 33.92C252.15 34.2133 251.443 34.36 250.67 34.36C248.243 34.36 247.03 33.2667 247.03 31.08C247.03 30.1467 247.27 28.48 247.75 26.08C248.23 23.68 248.47 22.1067 248.47 21.36C248.47 20.2133 247.923 19.64 246.83 19.64C244.91 19.64 243.363 22.4933 242.19 28.2C241.683 30.6267 241.403 32.4133 241.35 33.56Z" fill="white"/>
</svg>
